<?xml version="1.0" standalone="no"?>
<!DOCTYPE svg PUBLIC "-//W3C//DTD SVG 20010904//EN"
 "http://www.w3.org/TR/2001/REC-SVG-20010904/DTD/svg10.dtd">
<svg version="1.0" xmlns="http://www.w3.org/2000/svg"
 width="192.000000pt" height="192.000000pt" viewBox="0 0 192.000000 192.000000"
 preserveAspectRatio="xMidYMid meet">
<metadata>
Created by potrace 1.14, written by Peter Selinger 2001-2017
</metadata>
<g transform="translate(0.000000,192.000000) scale(0.100000,-0.100000)"
fill="#000000" stroke="none">
<path d="M167 1652 c-2 -4 -3 -153 -2 -332 2 -359 9 -420 64 -552 95 -227 296
-402 531 -464 134 -34 327 -25 465 23 210 74 399 264 471 474 10 30 19 56 19
59 1 3 5 16 8 30 17 65 19 117 21 431 l2 336 -200 -1 -200 -1 -1 -330 c-1
-181 -5 -343 -10 -360 -47 -170 -219 -298 -390 -289 -83 4 -176 36 -219 76
-11 10 -23 18 -28 18 -4 0 -28 27 -52 60 -65 88 -79 140 -81 298 l-1 132 59 0
c104 0 135 -34 137 -150 0 -77 4 -101 22 -135 45 -85 146 -125 239 -94 45 15
106 75 120 118 20 60 14 238 -11 312 -53 159 -155 262 -317 321 -54 20 -81 22
-350 24 -161 1 -294 -1 -296 -4z"/>
</g>
</svg>
